<svg width="555px" height="555px" viewBox="0 0 138 138" version="1.1" xmlns="http://www.w3.org/2000/svg" xmlns:xlink="http://www.w3.org/1999/xlink">
    <!-- Generator: Sketch 43.2 (39069) - http://www.bohemiancoding.com/sketch -->
    <desc>Created with Sketch.</desc>
    <defs>
        <path d="M47.9295148,51.81 C57.0618694,46.3726121 63.18,36.4016001 63.18,25 C63.18,14.9916589 58.4646687,6.08487909 51.134149,0.38 L12.8666998,0.38 C5.53600692,6.08487909 0.82,14.9916589 0.82,25 C0.82,36.4016001 6.93900722,46.3726121 16.071374,51.81 L47.9295148,51.81 L47.9295148,51.81 Z" id="path-1"></path>
    </defs>
    <g id="Page-1" stroke="none" stroke-width="1" fill="none" fill-rule="evenodd">
        <g id="shutterstock_219080269-2" transform="translate(-666.000000, -166.000000)">
            <polygon id="Fill-495" fill="#4A5054" points="666.667 303.334 803.333 303.334 803.333 166.667 666.667 166.667"></polygon>
            <path d="M748.523,303.334 L742.914,303.334 L699.88,260.3 C701.43,260.3 702.68,259.04 702.68,257.49 L748.523,303.334" id="Fill-496" fill="#353A3E"></path>
            <path d="M803.333,303.334 L750.956,303.334 L683.18,235.55 L683.16,235.53 L677.98,230.35 C680.85,230.3 683.17,227.95 683.17,225.06 L688.47,230.36 L707.16,249.04 L707.191,249.071 C705.042,244.844 703.82,240.07 703.82,235 C703.82,232.58 704.106,230.228 704.627,227.967 L704.62,227.96 L699.33,222.67 C699.19,222.5 699.09,222.3 699.03,222.08 C698.97,221.91 698.94,221.73 698.94,221.54 C698.94,220.51 699.78,219.67 700.809,219.67 C701,219.67 701.18,219.7 701.35,219.76 C701.61,219.84 701.849,219.97 702.05,220.15 L705.84,223.94 L705.845,223.944 C709.928,213.182 719.794,205.268 731.651,204.001 L731.65,204 L717.53,189.87 L717.5,189.85 L716.83,189.17 C716.49,188.71 716.3,188.15 716.3,187.54 C716.3,185.99 717.55,184.74 719.1,184.74 C719.76,184.74 720.36,184.96 720.83,185.33 L739.672,204.172 C744.038,204.828 748.107,206.384 751.68,208.66 C751.95,208.83 752.22,209.01 752.49,209.19 C752.76,209.37 753.02,209.56 753.28,209.74 C753.83,210.15 754.38,210.57 754.91,211 C755.21,211.25 755.51,211.51 755.8,211.77 L755.97,211.94 L758.03,213.99 L779.998,235.968 C781.051,234.869 781.7,233.373 781.7,231.73 L787.87,237.89 L803.333,253.353 L803.333,303.334" id="Fill-497" fill="#353A3E"></path>
            <path d="M803.333,247.113 L758.62,202.41 L755.191,198.98 C757.09,198.98 758.62,197.44 758.62,195.55 L803.333,240.254 L803.333,247.113" id="Fill-498" fill="#353A3E"></path>
            <path d="M774.082,261.854 C774.082,264.265 772.127,266.219 769.717,266.219 C767.307,266.219 765.353,264.265 765.353,261.854 C765.353,259.444 767.307,257.49 769.717,257.49 C772.127,257.49 774.082,259.444 774.082,261.854" id="Fill-499" fill="#0099FF"></path>
            <path d="M771.11,257.738 C771.801,258.442 772.23,259.404 772.23,260.468 C772.23,262.622 770.483,264.367 768.331,264.367 C767.267,264.367 766.304,263.939 765.601,263.248 C766.185,264.971 767.797,266.219 769.717,266.219 C772.127,266.219 774.082,264.265 774.082,261.854 C774.082,259.934 772.834,258.321 771.11,257.738" id="Fill-500" fill="#0086DF"></path>
            <path d="M721.909,187.544 C721.909,189.095 720.652,190.351 719.104,190.351 C717.555,190.351 716.297,189.095 716.297,187.544 C716.297,185.995 717.555,184.739 719.104,184.739 C720.652,184.739 721.909,185.995 721.909,187.544" id="Fill-501" fill="#FFFFFF"></path>
            <path d="M702.682,221.542 C702.682,222.575 701.845,223.412 700.813,223.412 C699.779,223.412 698.942,222.575 698.942,221.542 C698.942,220.508 699.779,219.67 700.813,219.67 C701.845,219.67 702.682,220.508 702.682,221.542" id="Fill-502" fill="#FFFFFF"></path>
            <path d="M787.875,237.895 C784.467,237.895 781.704,240.664 781.704,244.063 C781.704,240.664 778.946,237.895 775.538,237.895 C778.946,237.895 781.704,235.125 781.704,231.727 C781.704,235.125 784.467,237.895 787.875,237.895" id="Fill-503" fill="#FFFFFF"></path>
            <path d="M762.051,198.977 C760.157,198.977 758.622,200.517 758.622,202.407 C758.622,200.517 757.086,198.977 755.191,198.977 C757.086,198.977 758.622,197.438 758.622,195.547 C758.622,197.438 760.157,198.977 762.051,198.977" id="Fill-504" fill="#FFFFFF"></path>
            <path d="M688.475,230.365 C685.547,230.365 683.174,232.744 683.174,235.665 C683.174,232.744 680.8,230.365 677.875,230.365 C680.8,230.365 683.174,227.984 683.174,225.063 C683.174,227.984 685.547,230.365 688.475,230.365" id="Fill-505" fill="#FFFFFF"></path>
            <path d="M705.488,260.296 C703.94,260.296 702.682,261.555 702.682,263.102 C702.682,261.555 701.426,260.296 699.877,260.296 C701.426,260.296 702.682,259.037 702.682,257.49 C702.682,259.037 703.94,260.296 705.488,260.296" id="Fill-506" fill="#FFFFFF"></path>
            <path d="M766.18,235 C766.18,252.222 752.221,266.18 735,266.18 C717.781,266.18 703.82,252.222 703.82,235 C703.82,217.78 717.781,203.821 735,203.821 C752.221,203.821 766.18,217.78 766.18,235" id="Fill-507" fill="#0099FF"></path>
            <path d="M751.676,208.66 C754.736,213.483 756.514,219.2 756.514,225.335 C756.514,242.555 742.555,256.515 725.334,256.515 C719.201,256.515 713.484,254.736 708.66,251.676 C714.189,260.391 723.916,266.18 735,266.18 C752.221,266.18 766.18,252.222 766.18,235 C766.18,223.916 760.391,214.189 751.676,208.66" id="Fill-508" fill="#0086DF"></path>
            <g id="Group-534" transform="translate(703.000000, 210.000000)">
                <mask id="mask-2" fill="white">
                    <use xlink:href="#path-1"></use>
                </mask>
                <g id="Clip-510"></g>
                <path d="M39.053,37.412 C39.053,36.336 39.924,35.466 40.996,35.466 L32.199,35.466 C33.273,35.466 34.145,36.336 34.145,37.412 C34.145,38.486 33.273,39.357 32.199,39.357 L40.996,39.357 C39.924,39.357 39.053,38.486 39.053,37.412" id="Fill-509" fill="#FFFFFF" mask="url(#mask-2)"></path>
                <path d="M42.484,39.357 L26.787,39.357 C25.711,39.357 24.842,40.228 24.842,41.302 C24.842,42.376 25.711,43.248 26.787,43.248 L42.484,43.248 C43.559,43.248 44.43,42.376 44.43,41.302 C44.43,40.228 43.559,39.357 42.484,39.357" id="Fill-511" fill="#FFFFFF" mask="url(#mask-2)"></path>
                <path d="M46.49,29.63 C46.49,28.556 47.361,27.685 48.436,27.685 L30.797,27.685 C31.871,27.685 32.74,28.556 32.74,29.63 C32.74,30.706 31.871,31.575 30.797,31.575 L48.436,31.575 C47.361,31.575 46.49,30.706 46.49,29.63" id="Fill-512" fill="#FFFFFF" mask="url(#mask-2)"></path>
                <path d="M56.877,31.575 L30.797,31.575 C29.723,31.575 28.85,32.447 28.85,33.521 C28.85,34.596 29.723,35.466 30.797,35.466 L56.877,35.466 C57.951,35.466 58.822,34.596 58.822,33.521 C58.822,32.447 57.951,31.575 56.877,31.575" id="Fill-513" fill="#FFFFFF" mask="url(#mask-2)"></path>
                <path d="M48.436,23.794 L21.85,23.794 C20.773,23.794 19.902,24.665 19.902,25.74 C19.902,26.813 20.773,27.685 21.85,27.685 L48.436,27.685 C49.51,27.685 50.381,26.813 50.381,25.74 C50.381,24.665 49.51,23.794 48.436,23.794" id="Fill-514" fill="#FFFFFF" mask="url(#mask-2)"></path>
                <path d="M56.916,10.691 C56.916,9.617 57.787,8.746 58.861,8.746 L46.818,8.746 C47.893,8.746 48.762,9.617 48.762,10.691 C48.762,11.766 47.893,12.636 46.818,12.636 L58.861,12.636 C57.787,12.636 56.916,11.766 56.916,10.691" id="Fill-515" fill="#FFFFFF" mask="url(#mask-2)"></path>
                <path d="M65.961,12.636 L39.881,12.636 C38.805,12.636 37.936,13.508 37.936,14.582 C37.936,15.657 38.805,16.527 39.881,16.527 L65.961,16.527 C67.037,16.527 67.908,15.657 67.908,14.582 C67.908,13.508 67.037,12.636 65.961,12.636" id="Fill-516" fill="#FFFFFF" mask="url(#mask-2)"></path>
                <path d="M71.238,4.855 L44.652,4.855 C43.578,4.855 42.707,5.726 42.707,6.801 C42.707,7.875 43.578,8.746 44.652,8.746 L71.238,8.746 C72.313,8.746 73.186,7.875 73.186,6.801 C73.186,5.726 72.313,4.855 71.238,4.855" id="Fill-517" fill="#FFFFFF" mask="url(#mask-2)"></path>
                <path d="M10.846,38.601 C10.846,37.526 11.715,36.655 12.789,36.655 L0.746,36.655 C1.82,36.655 2.689,37.526 2.689,38.601 C2.689,39.676 1.82,40.545 0.746,40.545 L12.789,40.545 C11.715,40.545 10.846,39.676 10.846,38.601" id="Fill-518" fill="#FFFFFF" mask="url(#mask-2)"></path>
                <path d="M13.484,40.545 L-6.191,40.545 C-7.266,40.545 -8.139,41.417 -8.139,42.491 C-8.139,43.565 -7.266,44.437 -6.191,44.437 L13.484,44.437 C14.555,44.437 15.43,43.565 15.43,42.491 C15.43,41.417 14.555,40.545 13.484,40.545" id="Fill-519" fill="#FFFFFF" mask="url(#mask-2)"></path>
                <path d="M18.76,32.765 L-1.422,32.765 C-2.496,32.765 -3.365,33.635 -3.365,34.71 C-3.365,35.785 -2.496,36.655 -1.422,36.655 L18.76,36.655 C19.834,36.655 20.707,35.785 20.707,34.71 C20.707,33.635 19.834,32.765 18.76,32.765" id="Fill-520" fill="#FFFFFF" mask="url(#mask-2)"></path>
                <path d="M14.502,6.215 C14.502,7.29 15.375,8.162 16.449,8.162 L4.404,8.162 C5.479,8.162 6.35,7.29 6.35,6.215 C6.35,5.141 5.479,4.271 4.404,4.271 L16.449,4.271 C15.375,4.271 14.502,5.141 14.502,6.215" id="Fill-521" fill="#FFFFFF" mask="url(#mask-2)"></path>
                <path d="M32.416,4.271 L3.441,4.271 C2.367,4.271 1.498,3.399 1.498,2.326 C1.498,1.251 2.367,0.38 3.441,0.38 L32.416,0.38 C33.49,0.38 34.361,1.251 34.361,2.326 C34.361,3.399 33.49,4.271 32.416,4.271" id="Fill-522" fill="#FFFFFF" mask="url(#mask-2)"></path>
                <path d="M22.42,12.052 L2.238,12.052 C1.164,12.052 0.293,11.181 0.293,10.107 C0.293,9.032 1.164,8.162 2.238,8.162 L22.42,8.162 C23.494,8.162 24.365,9.032 24.365,10.107 C24.365,11.181 23.494,12.052 22.42,12.052" id="Fill-523" fill="#FFFFFF" mask="url(#mask-2)"></path>
                <path d="M61.236,47.917 L35.152,47.917 C34.078,47.917 33.209,48.79 33.209,49.864 C33.209,50.938 34.078,51.81 35.152,51.81 L61.236,51.81 C62.309,51.81 63.18,50.938 63.18,49.864 C63.18,48.79 62.309,47.917 61.236,47.917" id="Fill-524" fill="#FFFFFF" mask="url(#mask-2)"></path>
                <path d="M13.186,17.752 L-12.895,17.752 C-13.969,17.752 -14.842,18.624 -14.842,19.697 C-14.842,20.772 -13.969,21.644 -12.895,21.644 L13.186,21.644 C14.26,21.644 15.131,20.772 15.131,19.697 C15.131,18.624 14.26,17.752 13.186,17.752" id="Fill-525" fill="#FFFFFF" mask="url(#mask-2)"></path>
                <path d="M52.244,41.304 C52.244,42.378 51.373,43.249 50.299,43.249 C49.223,43.249 48.354,42.378 48.354,41.304 C48.354,40.228 49.223,39.357 50.299,39.357 C51.373,39.357 52.244,40.228 52.244,41.304" id="Fill-526" fill="#FFFFFF" mask="url(#mask-2)"></path>
                <path d="M31.426,10.107 C31.426,11.181 30.557,12.052 29.48,12.052 C28.406,12.052 27.533,11.181 27.533,10.107 C27.533,9.032 28.406,8.161 29.48,8.161 C30.557,8.161 31.426,9.032 31.426,10.107" id="Fill-527" fill="#FFFFFF" mask="url(#mask-2)"></path>
                <path d="M35.152,47.917 C34.078,47.917 33.209,48.79 33.209,49.864 C33.209,50.938 34.078,51.81 35.152,51.81 L47.918,51.81 C49.795,50.693 51.541,49.389 53.135,47.917 L35.152,47.917" id="Fill-528" fill="#E6E5E5" mask="url(#mask-2)"></path>
                <path d="M53.514,15.335 C53.514,15.735 53.5,16.131 53.484,16.527 L62.002,16.527 C61.625,15.19 61.158,13.893 60.615,12.636 L58.861,12.636 C57.787,12.636 56.916,11.766 56.916,10.691 C56.916,9.704 57.654,8.897 58.605,8.772 C57.764,7.394 56.826,6.081 55.785,4.855 L51.701,4.855 C52.871,8.131 53.514,11.657 53.514,15.335" id="Fill-529" fill="#E6E5E5" mask="url(#mask-2)"></path>
                <path d="M5.66,41.676 C6.27,42.635 6.938,43.552 7.643,44.437 L11.146,44.437 C9.219,43.693 7.381,42.768 5.66,41.676" id="Fill-530" fill="#E6E5E5" mask="url(#mask-2)"></path>
                <path d="M44.43,41.302 C44.43,40.228 43.559,39.357 42.484,39.357 L42.213,39.357 C40.383,40.872 38.375,42.178 36.229,43.248 L42.484,43.248 C43.559,43.248 44.43,42.376 44.43,41.302" id="Fill-531" fill="#E6E5E5" mask="url(#mask-2)"></path>
                <path d="M56.877,31.575 L48.955,31.575 C48.115,32.947 47.17,34.245 46.137,35.466 L56.877,35.466 C57.951,35.466 58.822,34.596 58.822,33.521 C58.822,32.447 57.951,31.575 56.877,31.575" id="Fill-532" fill="#E6E5E5" mask="url(#mask-2)"></path>
                <path d="M52.244,41.304 C52.244,40.228 51.373,39.357 50.299,39.357 C49.223,39.357 48.354,40.228 48.354,41.304 C48.354,42.378 49.223,43.249 50.299,43.249 C51.373,43.249 52.244,42.378 52.244,41.304" id="Fill-533" fill="#E6E5E5" mask="url(#mask-2)"></path>
            </g>
        </g>
    </g>
</svg>
