<svg width="555px" height="555px" viewBox="0 0 304 304" version="1.1" xmlns="http://www.w3.org/2000/svg" xmlns:xlink="http://www.w3.org/1999/xlink">
    <!-- Generator: Sketch 43.2 (39069) - http://www.bohemiancoding.com/sketch -->
    <desc>Created with Sketch.</desc>
    <defs></defs>
    <g id="Page-1" stroke="none" stroke-width="1" fill="none" fill-rule="evenodd">
        <g id="shutterstock_219080269-2" transform="translate(-166.000000, -166.000000)">
            <polygon id="Fill-180" fill="#00AAFF" points="166.667 470.001 470 470.001 470 166.667 166.667 166.667"></polygon>
            <path d="M470,470.001 L330.976,470.001 L250.16,389.19 L250.16,381.15 C250.16,381.092 250.161,381.035 250.164,380.977 C250.163,381.035 250.163,381.092 250.163,381.15 L250.163,389.192 L300.105,389.192 L300.105,283.468 L295.037,297.638 L235.01,237.61 C235.01,233.95 232.04,230.96 228.37,230.96 C232.04,230.96 235.01,227.98 235.01,224.31 L298.541,287.841 L299.225,285.924 L299.22,285.92 L270.36,257.06 C269.35,255.9 268.73,254.37 268.73,252.71 C268.73,249.03 271.71,246.06 275.38,246.06 C277.11,246.06 278.69,246.72 279.86,247.8 L300.1,268.04 L300.1,267.11 C300.1,264.942 300.215,262.806 300.437,260.705 C300.218,262.806 300.105,264.943 300.105,267.109 L300.105,389.192 L336.562,389.192 L336.562,396.291 L342.532,396.291 L386.504,389.192 L386.504,381.15 C386.504,379.311 386.162,377.438 385.422,375.632 C384.683,373.821 383.617,372.242 382.326,370.933 L359.551,347.752 L336.562,283.468 L336.562,267.109 C336.562,251.821 330.941,237.991 321.858,227.998 L421.101,327.241 C422.437,326.612 423.925,326.25 425.5,326.25 C427.98,326.25 430.26,327.13 432.04,328.58 L470,366.54 L470,470.001 M250.18,380.43 L250.18,380.43 L222.45,352.71 L222.45,352.7 L209.9,340.15 C216.84,340.14 222.45,334.5 222.45,327.58 L260.02,365.15 L267.354,357.687 L254.341,370.933 C253.049,372.242 251.984,373.821 251.245,375.632 C250.601,377.203 250.258,378.824 250.18,380.43 M470,353.49 L317.14,200.63 C316.57,200.07 316.22,199.28 316.22,198.42 C316.22,196.7 317.62,195.29 319.35,195.29 C320.05,195.29 320.7,195.52 321.23,195.93 L470,344.691 L470,353.49 M470,328.13 L368.91,227.04 C373.4,227.04 377.04,223.39 377.04,218.91 L470,311.87 L470,328.13 M284.29,327.69 L263.77,307.17 C263.66,307.08 263.56,306.98 263.47,306.87 C262.74,306.09 262.31,305.04 262.31,303.88 C262.31,301.44 264.29,299.45 266.74,299.45 C267.76,299.45 268.71,299.8 269.46,300.39 L270.23,301.16 L287.578,318.497 L284.29,327.69 M309.62,234.694 C309.787,234.437 309.958,234.183 310.13,233.93 C310.288,233.7 310.447,233.472 310.607,233.244 C310.271,233.721 309.942,234.205 309.62,234.694 M312.173,231.13 C312.239,231.045 312.304,230.962 312.37,230.879 C312.304,230.962 312.239,231.046 312.173,231.13 M312.927,230.184 C312.941,230.166 312.956,230.148 312.97,230.13 C313.003,230.09 313.036,230.05 313.069,230.011 C313.022,230.068 312.974,230.126 312.927,230.184 M313.919,229.002 C313.939,228.978 313.96,228.954 313.98,228.93 C314.06,228.838 314.141,228.747 314.221,228.655 C314.12,228.77 314.019,228.886 313.919,229.002 M315.904,226.829 C316.689,226.013 317.501,225.224 318.33,224.47 L318.332,224.473 C318.309,224.494 318.286,224.515 318.263,224.536 C318.261,224.538 318.259,224.539 318.257,224.541 C318.235,224.561 318.213,224.581 318.191,224.602 C318.19,224.603 318.19,224.603 318.188,224.604 C317.406,225.321 316.645,226.062 315.904,226.829" id="Fill-181" fill="#0086DF"></path>
            <path d="M435.846,336.594 C435.846,342.307 431.214,346.939 425.498,346.939 C419.786,346.939 415.154,342.307 415.154,336.594 C415.154,330.88 419.786,326.249 425.498,326.249 C431.214,326.249 435.846,330.88 435.846,336.594" id="Fill-182" fill="#FFFFFF"></path>
            <path d="M282.029,252.706 C282.029,256.381 279.051,259.359 275.38,259.359 C271.706,259.359 268.728,256.381 268.728,252.706 C268.728,249.034 271.706,246.056 275.38,246.056 C279.051,246.056 282.029,249.034 282.029,252.706" id="Fill-183" fill="#FFFFFF"></path>
            <path d="M271.17,303.885 C271.17,306.335 269.187,308.319 266.738,308.319 C264.29,308.319 262.306,306.335 262.306,303.885 C262.306,301.436 264.29,299.45 266.738,299.45 C269.187,299.45 271.17,301.436 271.17,303.885" id="Fill-184" fill="#FFFFFF"></path>
            <path d="M322.475,198.423 C322.475,200.152 321.074,201.554 319.346,201.554 C317.619,201.554 316.217,200.152 316.217,198.423 C316.217,196.696 317.619,195.293 319.346,195.293 C321.074,195.293 322.475,196.696 322.475,198.423" id="Fill-185" fill="#FFFFFF"></path>
            <path d="M385.166,296.13 C377.088,296.13 370.541,302.695 370.541,310.751 C370.541,302.695 364.002,296.13 355.924,296.13 C364.002,296.13 370.541,289.567 370.541,281.511 C370.541,289.567 377.088,296.13 385.166,296.13" id="Fill-186" fill="#FFFFFF"></path>
            <path d="M385.166,227.039 C380.677,227.039 377.039,230.687 377.039,235.168 C377.039,230.687 373.396,227.039 368.907,227.039 C373.396,227.039 377.039,223.391 377.039,218.909 C377.039,223.391 380.677,227.039 385.166,227.039" id="Fill-187" fill="#FFFFFF"></path>
            <path d="M235.017,340.146 C228.079,340.146 222.453,345.785 222.453,352.708 C222.453,345.785 216.826,340.146 209.893,340.146 C216.826,340.146 222.453,334.504 222.453,327.581 C222.453,334.504 228.079,340.146 235.017,340.146" id="Fill-188" fill="#FFFFFF"></path>
            <path d="M241.667,230.964 C237.997,230.964 235.015,233.946 235.015,237.612 C235.015,233.946 232.036,230.964 228.366,230.964 C232.036,230.964 235.015,227.978 235.015,224.311 C235.015,227.978 237.997,230.964 241.667,230.964" id="Fill-189" fill="#FFFFFF"></path>
            <polyline id="Fill-190" fill="#E6E5E5" points="342.532 396.291 342.532 389.192 386.504 389.192 342.532 396.291"></polyline>
            <path d="M385.422,375.632 C384.683,373.821 383.617,372.242 382.326,370.933 L359.551,347.752 L336.562,283.468 L336.562,389.192 L386.504,389.192 L386.504,381.15 C386.504,379.311 386.162,377.438 385.422,375.632" id="Fill-191" fill="#32373C"></path>
            <path d="M336.562,381.15 L336.562,283.468 L355.76,350.131 L379.205,373.996 C380.141,374.945 380.869,376.053 381.37,377.288 C381.876,378.518 382.13,379.82 382.13,381.15 L336.562,381.15" id="Fill-192" fill="#E6E5E5"></path>
            <polygon id="Fill-193" fill="#FF2E52" points="337.03 372.302 353.12 372.302 353.12 365.251 337.03 365.251"></polygon>
            <polygon id="Fill-194" fill="#51A9D2" points="336.562 396.291 342.532 396.291 342.532 389.192 336.562 389.192"></polygon>
            <polyline id="Fill-195" fill="#CFCECE" points="342.532 396.291 342.532 389.192 344.581 389.192 344.581 395.956 342.532 396.291"></polyline>
            <path d="M336.562,389.192 L344.581,389.192 L344.581,381.15 L336.562,381.15 L336.562,389.192 Z M344.581,311.314 L336.562,283.468 L344.581,305.895 L344.581,311.314 L344.581,311.314 Z" id="Fill-196" fill="#2D3136"></path>
            <polyline id="Fill-197" fill="#CFCECE" points="344.581 381.15 336.562 381.15 336.562 283.468 344.581 311.314 344.581 365.251 337.03 365.251 337.03 372.302 344.581 372.302 344.581 381.15"></polyline>
            <polygon id="Fill-198" fill="#E1695A" points="337.03 372.302 344.581 372.302 344.581 365.251 337.03 365.251"></polygon>
            <path d="M277.115,347.752 L254.341,370.933 C253.049,372.242 251.984,373.821 251.245,375.632 C250.505,377.438 250.163,379.311 250.163,381.15 L250.163,389.192 L300.105,389.192 L300.105,283.468 L277.115,347.752" id="Fill-199" fill="#32373C"></path>
            <polyline id="Fill-200" fill="#FFFFFF" points="250.163 389.192 294.136 396.291 294.136 389.192 250.163 389.192"></polyline>
            <path d="M300.105,381.15 L300.105,283.468 L280.906,350.131 L257.461,373.996 C256.526,374.945 255.797,376.053 255.295,377.288 C254.79,378.518 254.536,379.82 254.536,381.15 L300.105,381.15" id="Fill-201" fill="#FFFFFF"></path>
            <polygon id="Fill-202" fill="#FF2E52" points="284.015 372.302 300.105 372.302 300.105 365.251 284.015 365.251"></polygon>
            <path d="M296.947,389.192 L300.105,389.192 L300.105,381.15 L296.947,381.15 L296.947,389.192 Z M296.947,294.433 L296.947,292.302 L300.105,283.468 L296.947,294.433 L296.947,294.433 Z" id="Fill-203" fill="#2F3439"></path>
            <path d="M296.947,381.15 L300.105,381.15 L300.105,372.302 L296.947,372.302 L296.947,381.15 Z M300.105,365.251 L296.947,365.251 L296.947,294.433 L300.105,283.468 L300.105,365.251 L300.105,365.251 Z" id="Fill-204" fill="#F2F2F2"></path>
            <polygon id="Fill-205" fill="#ED6F5F" points="296.947 372.302 300.105 372.302 300.105 365.251 296.947 365.251"></polygon>
            <polygon id="Fill-206" fill="#FFFFFF" points="300.105 389.192 336.562 389.192 336.562 267.109 300.105 267.109"></polygon>
            <path d="M318.333,224.472 C307.201,234.592 300.105,249.931 300.105,267.109 L336.562,267.109 C336.562,249.931 329.465,234.592 318.333,224.472" id="Fill-207" fill="#FFFFFF"></path>
            <path d="M318.333,236.38 C324.78,236.38 329.394,240.103 332.519,245.332 C329.345,237.174 324.452,230.035 318.333,224.472 C312.214,230.035 307.322,237.174 304.148,245.33 C307.272,240.103 311.886,236.38 318.333,236.38" id="Fill-208" fill="#32373C"></path>
            <polyline id="Fill-209" fill="#32373C" points="318.333 255.668 306.122 260.126 306.122 267.109 311.534 267.109 311.534 263.121 318.333 260.634 325.133 263.121 325.133 267.109 330.545 267.109 330.545 260.126 318.333 255.668"></polyline>
            <polygon id="Fill-210" fill="#F2F2F2" points="325.259 389.192 336.562 389.192 336.562 267.109 325.259 267.109"></polygon>
            <path d="M336.562,267.109 L330.545,267.109 L330.545,260.126 L325.008,258.105 C324.571,250.359 323.579,243.155 322.156,236.852 C326.653,238.01 330.05,241.201 332.519,245.332 C329.357,237.207 324.49,230.091 318.406,224.538 C329.495,234.658 336.562,249.969 336.562,267.109 M318.405,224.537 C318.381,224.515 318.357,224.493 318.333,224.472 C318.357,224.493 318.381,224.515 318.405,224.537" id="Fill-211" fill="#F2F2F2"></path>
            <path d="M332.519,245.332 C330.05,241.201 326.653,238.01 322.156,236.852 C321.102,232.184 319.812,228.009 318.333,224.472 C318.357,224.493 318.381,224.515 318.405,224.537 C318.406,224.537 318.405,224.537 318.406,224.538 C324.49,230.091 329.357,237.207 332.519,245.332" id="Fill-212" fill="#2F3439"></path>
            <path d="M330.545,267.109 L325.259,267.109 C325.259,264.042 325.173,261.035 325.008,258.105 L330.545,260.126 L330.545,267.109" id="Fill-213" fill="#2F3439"></path>
            <path d="M305.142,353.867 C299.068,353.867 294.136,361.449 294.136,370.8 L294.136,392.909 L316.145,392.909 L316.145,370.8 C316.145,361.449 311.22,353.867 305.142,353.867" id="Fill-214" fill="#F2F2F2"></path>
            <path d="M305.142,353.867 C307.144,353.867 308.764,361.449 308.764,370.8 L308.764,392.909 L316.145,392.909 L316.145,370.8 C316.145,361.449 311.22,353.867 305.142,353.867" id="Fill-215" fill="#D9D8D7"></path>
            <polygon id="Fill-216" fill="#FF2E52" points="294.136 392.909 316.145 392.909 316.145 389.192 294.136 389.192"></polygon>
            <polygon id="Fill-217" fill="#DD4E4E" points="308.764 392.909 316.145 392.909 316.145 389.192 308.764 389.192"></polygon>
            <path d="M316.145,396.291 C316.145,397.594 315.65,398.894 314.661,399.884 C313.668,400.875 312.367,401.375 311.069,401.375 L299.218,401.375 C297.915,401.375 296.617,400.875 295.625,399.884 C294.635,398.894 294.136,397.594 294.136,396.291 L294.136,392.909 L316.145,392.909 L316.145,396.291" id="Fill-218" fill="#4A5054"></path>
            <path d="M308.764,392.909 L308.764,401.375 L311.069,401.375 C312.367,401.375 313.668,400.875 314.661,399.884 C315.65,398.894 316.145,397.594 316.145,396.291 L316.145,392.909 L308.764,392.909" id="Fill-219" fill="#32373C"></path>
            <path d="M331.526,353.867 C325.448,353.867 320.523,361.449 320.523,370.8 L320.523,392.909 L342.532,392.909 L342.532,370.8 C342.532,361.449 337.607,353.867 331.526,353.867" id="Fill-220" fill="#F2F2F2"></path>
            <path d="M331.526,353.867 C333.525,353.867 335.148,361.449 335.148,370.8 L335.148,392.909 L342.532,392.909 L342.532,370.8 C342.532,361.449 337.607,353.867 331.526,353.867" id="Fill-221" fill="#D9D8D7"></path>
            <polygon id="Fill-222" fill="#FF2E52" points="320.523 392.909 342.532 392.909 342.532 389.192 320.523 389.192"></polygon>
            <polygon id="Fill-223" fill="#DD4E4E" points="335.15 392.909 342.532 392.909 342.532 389.192 335.15 389.192"></polygon>
            <path d="M342.532,396.291 C342.532,397.594 342.039,398.894 341.043,399.884 C340.051,400.875 338.753,401.375 337.45,401.375 L325.601,401.375 C324.304,401.375 323,400.875 322.01,399.884 C321.018,398.894 320.523,397.594 320.523,396.291 L320.523,392.909 L342.532,392.909 L342.532,396.291" id="Fill-224" fill="#4A5054"></path>
            <path d="M335.15,392.909 L335.15,401.375 L337.452,401.375 C338.753,401.375 340.051,400.875 341.043,399.884 C342.039,398.894 342.532,397.594 342.532,396.291 L342.532,392.909 L335.15,392.909" id="Fill-225" fill="#32373C"></path>
            <path d="M316.145,363.329 L316.145,396.291 C316.145,401.923 316.934,407.433 318.335,412.197 L318.335,353.867 C316.217,353.867 316.145,357.699 316.145,363.329" id="Fill-226" fill="#4A5054"></path>
            <path d="M320.523,363.329 L320.523,396.291 C320.523,401.923 319.736,407.433 318.335,412.197 L318.335,353.867 C320.453,353.867 320.523,357.699 320.523,363.329" id="Fill-227" fill="#32373C"></path>
        </g>
    </g>
</svg>
