
<svg width="555px" height="555px" viewBox="0 0 304 304" version="1.1" xmlns="http://www.w3.org/2000/svg" xmlns:xlink="http://www.w3.org/1999/xlink">
    <!-- Generator: Sketch 43.2 (39069) - http://www.bohemiancoding.com/sketch -->
    <desc>Created with Sketch.</desc>
    <defs></defs>
    <g id="Page-1" stroke="none" stroke-width="1" fill="none" fill-rule="evenodd">
        <g id="shutterstock_219080269" transform="translate(0.000000, -666.000000)">
            <polygon id="Fill-1" fill="#FA7564" points="0 970.002 303.333 970.002 303.333 666.668 0 666.668"></polygon>
            <path d="M303.333,970.002 L138.852,970.002 L97.185,928.335 L136.636,928.335 L136.636,849.434 L97.181,849.434 L97.181,928.331 L97.18,928.33 L97.18,862.521 L62.86,828.2 L62.86,808.46 L67.79,808.46 L67.79,803.54 L77.66,803.54 L77.66,798.61 L105.27,798.61 L105.27,795.32 L97.182,787.232 L136.636,787.232 L136.636,708.335 L136.64,708.34 L219.316,791.017 L227.636,782.696 L303.333,858.392 L303.333,970.002 M97.181,787.232 L97.18,787.231 L97.18,708.33 L136.63,708.33 L136.635,708.335 L97.181,708.335 L97.181,787.232" id="Fill-2" fill="#EC5B4E"></path>
            <path d="M223.161,782.696 C205.79,785.268 192.456,800.242 192.456,818.335 C192.456,836.422 205.79,851.398 223.161,853.973 L223.161,782.696" id="Fill-3" fill="#FFFFFF"></path>
            <path d="M195.772,803.238 C193.655,807.824 192.456,812.941 192.456,818.335 C192.456,836.422 205.79,851.398 223.161,853.973 L223.161,834.938 C207.692,832.644 195.817,819.334 195.772,803.238" id="Fill-4" fill="#E6E5E5"></path>
            <polygon id="Fill-5" fill="#D9D8D7" points="223.161 853.973 227.636 853.973 227.636 782.696 223.161 782.696"></polygon>
            <polygon id="Fill-6" fill="#FFFFFF" points="227.636 819.619 236.803 819.619 236.803 817.055 227.636 817.055"></polygon>
            <path d="M240.47,818.332 C240.47,820.358 238.827,821.999 236.803,821.999 C234.78,821.999 233.133,820.358 233.133,818.332 C233.133,816.308 234.78,814.663 236.803,814.663 C238.827,814.663 240.47,816.308 240.47,818.332" id="Fill-7" fill="#D9D8D7"></path>
            <polygon id="Fill-8" fill="#FFFFFF" points="77.657 838.06 111.979 838.06 111.979 798.609 77.657 798.609"></polygon>
            <polygon id="Fill-9" fill="#D9D8D7" points="178.253 833.123 188.124 833.123 188.124 803.543 178.253 803.543"></polygon>
            <polygon id="Fill-10" fill="#32373C" points="111.979 813.402 121.838 813.402 121.838 803.543 111.979 803.543"></polygon>
            <polygon id="Fill-11" fill="#32373C" points="188.124 826.227 193.324 826.227 193.324 810.445 188.124 810.445"></polygon>
            <polygon id="Fill-12" fill="#32373C" points="111.979 833.123 121.838 833.123 121.838 823.267 111.979 823.267"></polygon>
            <polygon id="Fill-13" fill="#32373C" points="67.792 833.123 77.657 833.123 77.657 803.543 67.792 803.543"></polygon>
            <polygon id="Fill-14" fill="#4A5054" points="62.863 828.195 67.791 828.195 67.791 808.464 62.863 808.464"></polygon>
            <polygon id="Fill-15" fill="#FFFFFF" points="121.838 838.06 178.253 838.06 178.253 798.609 121.838 798.609"></polygon>
            <polygon id="Fill-16" fill="#E6E5E5" points="77.657 838.06 111.979 838.06 111.979 823.267 77.657 823.267"></polygon>
            <polygon id="Fill-17" fill="#E6E5E5" points="121.838 838.06 178.253 838.06 178.253 823.267 121.838 823.267"></polygon>
            <polygon id="Fill-18" fill="#DD4E4E" points="170.908 806.299 173.666 806.299 173.666 803.543 170.908 803.543"></polygon>
            <polygon id="Fill-19" fill="#DD4E4E" points="163.608 806.299 166.37 806.299 166.37 803.543 163.608 803.543"></polygon>
            <polygon id="Fill-20" fill="#DD4E4E" points="99.778 806.299 107.664 806.299 107.664 803.543 99.778 803.543"></polygon>
            <polygon id="Fill-21" fill="#32373C" points="105.273 798.609 109.212 798.609 109.212 787.232 105.273 787.232"></polygon>
            <polygon id="Fill-22" fill="#32373C" points="124.605 798.609 128.548 798.609 128.548 787.232 124.605 787.232"></polygon>
            <polygon id="Fill-23" fill="#32373C" points="105.273 849.434 109.212 849.434 109.212 838.06 105.273 838.06"></polygon>
            <polygon id="Fill-24" fill="#32373C" points="124.605 849.434 128.548 849.434 128.548 838.06 124.605 838.06"></polygon>
            <polygon id="Fill-25" fill="#FFFFFF" points="97.181 787.232 136.636 787.232 136.636 708.335 97.181 708.335"></polygon>
            <polygon id="Fill-26" fill="#71CFF4" points="99.16 785.261 134.663 785.261 134.663 710.304 99.16 710.304"></polygon>
            <polygon id="Fill-27" fill="#FFFFFF" points="99.16 776.444 134.663 776.444 134.663 775.924 99.16 775.924"></polygon>
            <polygon id="Fill-28" fill="#FFFFFF" points="99.16 766.984 134.663 766.984 134.663 766.462 99.16 766.462"></polygon>
            <polygon id="Fill-29" fill="#FFFFFF" points="99.16 757.515 134.663 757.515 134.663 756.992 99.16 756.992"></polygon>
            <polygon id="Fill-30" fill="#FFFFFF" points="99.16 748.047 134.663 748.047 134.663 747.522 99.16 747.522"></polygon>
            <polygon id="Fill-31" fill="#FFFFFF" points="99.16 738.58 134.663 738.58 134.663 738.059 99.16 738.059"></polygon>
            <polygon id="Fill-32" fill="#FFFFFF" points="99.16 729.109 134.663 729.109 134.663 728.585 99.16 728.585"></polygon>
            <polygon id="Fill-33" fill="#FFFFFF" points="99.16 719.638 134.663 719.638 134.663 719.117 99.16 719.117"></polygon>
            <path d="M134.593,785.261 L102.501,785.261 L99.16,781.919 L99.16,776.444 L125.777,776.444 L134.593,785.261 M125.256,775.924 L99.16,775.924 L99.16,766.984 L116.316,766.984 L125.256,775.924 M115.794,766.462 L99.16,766.462 L99.16,757.515 L106.846,757.515 L115.794,766.462" id="Fill-34" fill="#9CDEF9"></path>
            <polyline id="Fill-35" fill="#FFFFFF" points="125.777 776.444 99.16 776.444 99.16 775.924 125.256 775.924 125.777 776.444"></polyline>
            <polyline id="Fill-36" fill="#FFFFFF" points="116.316 766.984 99.16 766.984 99.16 766.462 115.794 766.462 116.316 766.984"></polyline>
            <polyline id="Fill-37" fill="#9CDEF9" points="106.324 756.992 99.16 756.992 99.16 749.828 106.324 756.992"></polyline>
            <polyline id="Fill-38" fill="#FFFFFF" points="106.846 757.515 99.16 757.515 99.16 756.992 106.324 756.992 106.846 757.515"></polyline>
            <path d="M134.663,783.942 L127.165,776.444 L129.993,776.444 L134.663,781.113 L134.663,783.942 M129.473,775.924 L126.644,775.924 L117.704,766.984 L120.533,766.984 L129.473,775.924 M120.011,766.462 L117.181,766.462 L108.233,757.515 L111.063,757.515 L120.011,766.462" id="Fill-39" fill="#9CDEF9"></path>
            <polyline id="Fill-40" fill="#FFFFFF" points="129.993 776.444 127.165 776.444 126.644 775.924 129.473 775.924 129.993 776.444"></polyline>
            <polyline id="Fill-41" fill="#FFFFFF" points="120.533 766.984 117.704 766.984 117.181 766.462 120.011 766.462 120.533 766.984"></polyline>
            <path d="M110.541,756.992 L107.711,756.992 L99.16,748.441 L99.16,748.047 L101.595,748.047 L110.541,756.992 M101.071,747.522 L99.16,747.522 L99.16,745.611 L101.071,747.522" id="Fill-42" fill="#9CDEF9"></path>
            <polyline id="Fill-43" fill="#FFFFFF" points="111.063 757.515 108.233 757.515 107.711 756.992 110.541 756.992 111.063 757.515"></polyline>
            <polyline id="Fill-44" fill="#FFFFFF" points="101.595 748.047 99.16 748.047 99.16 747.522 101.071 747.522 101.595 748.047"></polyline>
            <path d="M134.663,774.905 L126.742,766.984 L134.663,766.984 L134.663,774.905 M134.663,766.462 L126.219,766.462 L117.271,757.515 L132.16,757.515 L134.663,760.018 L134.663,766.462" id="Fill-45" fill="#9CDEF9"></path>
            <polyline id="Fill-46" fill="#FFFFFF" points="134.663 766.984 126.742 766.984 126.219 766.462 134.663 766.462 134.663 766.984"></polyline>
            <path d="M131.637,756.992 L116.749,756.992 L107.803,748.047 L122.693,748.047 L131.637,756.992 M122.169,747.522 L107.279,747.522 L99.16,739.404 L99.16,738.58 L113.227,738.58 L122.169,747.522 M112.706,738.059 L99.16,738.059 L99.16,729.109 L103.758,729.109 L112.706,738.059 M103.233,728.585 L99.16,728.585 L99.16,724.511 L103.233,728.585" id="Fill-47" fill="#9CDEF9"></path>
            <polyline id="Fill-48" fill="#FFFFFF" points="132.16 757.515 117.271 757.515 116.749 756.992 131.637 756.992 132.16 757.515"></polyline>
            <polyline id="Fill-49" fill="#FFFFFF" points="122.693 748.047 107.803 748.047 107.279 747.522 122.169 747.522 122.693 748.047"></polyline>
            <polyline id="Fill-50" fill="#FFFFFF" points="113.227 738.58 99.16 738.58 99.16 738.059 112.706 738.059 113.227 738.58"></polyline>
            <polyline id="Fill-51" fill="#FFFFFF" points="103.758 729.109 99.16 729.109 99.16 728.585 103.233 728.585 103.758 729.109"></polyline>
            <path d="M134.663,736.637 L127.135,729.109 L134.663,729.109 L134.663,736.637 M134.663,728.585 L126.611,728.585 L117.663,719.638 L134.663,719.638 L134.663,728.585 M134.663,719.117 L117.143,719.117 L108.329,710.304 L127.741,710.304 L134.663,717.225 L134.663,719.117" id="Fill-52" fill="#9CDEF9"></path>
            <polyline id="Fill-53" fill="#FFFFFF" points="134.663 729.109 127.135 729.109 126.611 728.585 134.663 728.585 134.663 729.109"></polyline>
            <polyline id="Fill-54" fill="#FFFFFF" points="134.663 719.638 117.663 719.638 117.143 719.117 134.663 719.117 134.663 719.638"></polyline>
            <path d="M134.663,744.827 L128.416,738.58 L134.663,738.58 L134.663,744.827 M134.246,738.059 L127.895,738.059 L118.945,729.109 L125.296,729.109 L134.246,738.059 M124.772,728.585 L118.421,728.585 L109.474,719.638 L115.824,719.638 L124.772,728.585" id="Fill-55" fill="#9CDEF9"></path>
            <polyline id="Fill-56" fill="#FFFFFF" points="134.663 738.58 128.416 738.58 127.895 738.059 134.246 738.059 134.663 738.475 134.663 738.58"></polyline>
            <polyline id="Fill-57" fill="#FFFFFF" points="125.296 729.109 118.945 729.109 118.421 728.585 124.772 728.585 125.296 729.109"></polyline>
            <polyline id="Fill-58" fill="#9CDEF9" points="115.304 719.117 108.953 719.117 100.14 710.304 106.49 710.304 115.304 719.117"></polyline>
            <polyline id="Fill-59" fill="#FFFFFF" points="115.824 719.638 109.474 719.638 108.953 719.117 115.304 719.117 115.824 719.638"></polyline>
            <polygon id="Fill-60" fill="#FFFFFF" points="107.575 785.261 108.096 785.261 108.096 710.304 107.575 710.304"></polygon>
            <polygon id="Fill-61" fill="#FFFFFF" points="116.647 785.261 117.171 785.261 117.171 710.304 116.647 710.304"></polygon>
            <polygon id="Fill-62" fill="#FFFFFF" points="125.723 785.261 126.245 785.261 126.245 710.304 125.723 710.304"></polygon>
            <polygon id="Fill-63" fill="#FFFFFF" points="97.181 928.335 136.636 928.335 136.636 849.434 97.181 849.434"></polygon>
            <polygon id="Fill-64" fill="#71CFF4" points="99.16 926.36 134.663 926.36 134.663 851.408 99.16 851.408"></polygon>
            <polygon id="Fill-65" fill="#FFFFFF" points="99.16 917.545 134.663 917.545 134.663 917.023 99.16 917.023"></polygon>
            <polygon id="Fill-66" fill="#FFFFFF" points="99.16 908.082 134.663 908.082 134.663 907.559 99.16 907.559"></polygon>
            <polygon id="Fill-67" fill="#FFFFFF" points="99.16 898.612 134.663 898.612 134.663 898.089 99.16 898.089"></polygon>
            <polygon id="Fill-68" fill="#FFFFFF" points="99.16 889.149 134.663 889.149 134.663 888.629 99.16 888.629"></polygon>
            <polygon id="Fill-69" fill="#FFFFFF" points="99.16 879.68 134.663 879.68 134.663 879.156 99.16 879.156"></polygon>
            <polygon id="Fill-70" fill="#FFFFFF" points="99.16 870.207 134.663 870.207 134.663 869.685 99.16 869.685"></polygon>
            <polygon id="Fill-71" fill="#FFFFFF" points="99.16 860.742 134.663 860.742 134.663 860.219 99.16 860.219"></polygon>
            <path d="M134.594,926.36 L102.498,926.36 L99.16,923.022 L99.16,917.545 L125.778,917.545 L134.594,926.36 M125.257,917.023 L99.16,917.023 L99.16,908.082 L116.315,908.082 L125.257,917.023 M115.792,907.559 L99.16,907.559 L99.16,898.612 L106.846,898.612 L115.792,907.559" id="Fill-72" fill="#9CDEF9"></path>
            <polyline id="Fill-73" fill="#FFFFFF" points="125.778 917.545 99.16 917.545 99.16 917.023 125.257 917.023 125.778 917.545"></polyline>
            <polyline id="Fill-74" fill="#FFFFFF" points="116.315 908.082 99.16 908.082 99.16 907.559 115.792 907.559 116.315 908.082"></polyline>
            <polyline id="Fill-75" fill="#9CDEF9" points="106.322 898.089 99.16 898.089 99.16 890.926 106.322 898.089"></polyline>
            <polyline id="Fill-76" fill="#FFFFFF" points="106.846 898.612 99.16 898.612 99.16 898.089 106.322 898.089 106.846 898.612"></polyline>
            <path d="M134.663,925.041 L127.166,917.545 L129.996,917.545 L134.663,922.212 L134.663,925.041 M129.474,917.023 L126.645,917.023 L117.703,908.082 L120.533,908.082 L129.474,917.023 M120.01,907.559 L117.179,907.559 L108.232,898.612 L111.064,898.612 L120.01,907.559" id="Fill-77" fill="#9CDEF9"></path>
            <polyline id="Fill-78" fill="#FFFFFF" points="129.996 917.545 127.166 917.545 126.645 917.023 129.474 917.023 129.996 917.545"></polyline>
            <polyline id="Fill-79" fill="#FFFFFF" points="120.533 908.082 117.703 908.082 117.179 907.559 120.01 907.559 120.533 908.082"></polyline>
            <path d="M110.54,898.089 L107.709,898.089 L99.16,889.54 L99.16,889.149 L101.601,889.149 L110.54,898.089 M101.081,888.629 L99.16,888.629 L99.16,886.708 L101.081,888.629" id="Fill-80" fill="#9CDEF9"></path>
            <polyline id="Fill-81" fill="#FFFFFF" points="111.064 898.612 108.232 898.612 107.709 898.089 110.54 898.089 111.064 898.612"></polyline>
            <polyline id="Fill-82" fill="#FFFFFF" points="101.601 889.149 99.16 889.149 99.16 888.629 101.081 888.629 101.601 889.149"></polyline>
            <path d="M134.663,916.001 L126.743,908.082 L134.663,908.082 L134.663,916.001 M134.663,907.559 L126.22,907.559 L117.272,898.612 L132.161,898.612 L134.663,901.114 L134.663,907.559" id="Fill-83" fill="#9CDEF9"></path>
            <polyline id="Fill-84" fill="#FFFFFF" points="134.663 908.082 126.743 908.082 126.22 907.559 134.663 907.559 134.663 908.082"></polyline>
            <path d="M131.638,898.089 L116.749,898.089 L107.808,889.149 L122.699,889.149 L131.638,898.089 M122.179,888.629 L107.288,888.629 L99.16,880.501 L99.16,879.68 L113.23,879.68 L122.179,888.629 M112.707,879.156 L99.16,879.156 L99.16,870.207 L103.759,870.207 L112.707,879.156 M103.236,869.685 L99.16,869.685 L99.16,865.608 L103.236,869.685" id="Fill-85" fill="#9CDEF9"></path>
            <polyline id="Fill-86" fill="#FFFFFF" points="132.161 898.612 117.272 898.612 116.749 898.089 131.638 898.089 132.161 898.612"></polyline>
            <polyline id="Fill-87" fill="#FFFFFF" points="122.699 889.149 107.808 889.149 107.288 888.629 122.179 888.629 122.699 889.149"></polyline>
            <polyline id="Fill-88" fill="#FFFFFF" points="113.23 879.68 99.16 879.68 99.16 879.156 112.707 879.156 113.23 879.68"></polyline>
            <polyline id="Fill-89" fill="#FFFFFF" points="103.759 870.207 99.16 870.207 99.16 869.685 103.236 869.685 103.759 870.207"></polyline>
            <path d="M134.663,877.736 L127.134,870.207 L134.663,870.207 L134.663,877.736 M134.663,869.685 L126.611,869.685 L117.669,860.742 L134.663,860.742 L134.663,869.685 M134.663,860.219 L117.145,860.219 L108.335,851.408 L127.741,851.408 L134.663,858.329 L134.663,860.219" id="Fill-90" fill="#9CDEF9"></path>
            <polyline id="Fill-91" fill="#FFFFFF" points="134.663 870.207 127.134 870.207 126.611 869.685 134.663 869.685 134.663 870.207"></polyline>
            <polyline id="Fill-92" fill="#FFFFFF" points="134.663 860.742 117.669 860.742 117.145 860.219 134.663 860.219 134.663 860.742"></polyline>
            <path d="M134.663,885.929 L128.413,879.68 L134.663,879.68 L134.663,885.929 M134.244,879.156 L127.889,879.156 L118.94,870.207 L125.295,870.207 L134.244,879.156 M124.772,869.685 L118.417,869.685 L109.474,860.742 L115.83,860.742 L124.772,869.685" id="Fill-93" fill="#9CDEF9"></path>
            <polyline id="Fill-94" fill="#FFFFFF" points="134.663 879.68 128.413 879.68 127.889 879.156 134.244 879.156 134.663 879.575 134.663 879.68"></polyline>
            <polyline id="Fill-95" fill="#FFFFFF" points="125.295 870.207 118.94 870.207 118.417 869.685 124.772 869.685 125.295 870.207"></polyline>
            <polyline id="Fill-96" fill="#9CDEF9" points="115.306 860.219 108.951 860.219 100.14 851.408 106.496 851.408 115.306 860.219"></polyline>
            <polyline id="Fill-97" fill="#FFFFFF" points="115.83 860.742 109.474 860.742 108.951 860.219 115.306 860.219 115.83 860.742"></polyline>
            <polygon id="Fill-98" fill="#FFFFFF" points="107.575 926.36 108.096 926.36 108.096 851.408 107.575 851.408"></polygon>
            <polygon id="Fill-99" fill="#FFFFFF" points="116.647 926.36 117.171 926.36 117.171 851.408 116.647 851.408"></polygon>
            <polygon id="Fill-100" fill="#FFFFFF" points="125.723 926.36 126.245 926.36 126.245 851.408 125.723 851.408"></polygon>
        </g>
    </g>
</svg>
