<svg width="555px" height="555px" viewBox="0 0 137 137" version="1.1" xmlns="http://www.w3.org/2000/svg" xmlns:xlink="http://www.w3.org/1999/xlink">
    <!-- Generator: Sketch 43.2 (39069) - http://www.bohemiancoding.com/sketch -->
    <desc>Created with Sketch.</desc>
    <defs></defs>
    <g id="Page-1" stroke="none" stroke-width="1" fill="none" fill-rule="evenodd">
        <g id="shutterstock_219080269-2" transform="translate(-500.000000, 0.000000)">
            <polygon id="Fill-750" fill="#4A5054" points="500 136.667 636.667 136.667 636.667 0 500 0"></polygon>
            <path d="M636.667,136.667 L578.493,136.667 L523.83,82.01 L523.59,81.77 C523.38,81.51 523.25,81.17 523.25,80.8 C523.25,79.95 523.94,79.26 524.79,79.26 C525.059,79.26 525.31,79.33 525.53,79.45 L530.385,74.595 L525.414,69.624 C525.236,69.506 525.084,69.354 524.967,69.176 L521.31,65.52 L521.276,65.486 L521.124,65.334 L521.1,65.31 L521.089,65.292 C520.988,65.168 520.905,65.031 520.848,64.88 L520.825,64.809 C520.774,64.654 520.74,64.492 520.74,64.32 C520.74,63.47 521.43,62.78 522.29,62.78 C522.99,62.78 523.58,63.25 523.76,63.89 L533.15,63.89 L535.17,61.87 C535.25,61.79 535.36,61.74 535.48,61.74 L536.2,61.74 L531.605,57.145 C531.517,57.062 531.438,56.969 531.372,56.867 L531.328,56.786 L531.238,56.616 L531.168,56.388 L531.151,56.331 C531.131,56.231 531.12,56.127 531.12,56.02 C531.12,55.17 531.809,54.48 532.66,54.48 C533.37,54.48 533.96,54.95 534.14,55.59 L543.53,55.59 L543.53,54.5 L546.58,54.5 L546.58,46.58 L554.46,46.58 L554.46,43.53 L555.56,43.53 L555.56,35.09 L550.084,29.614 C549.923,29.464 549.791,29.281 549.706,29.073 L549.668,28.95 L549.62,28.794 C549.601,28.696 549.59,28.594 549.59,28.49 C549.59,28.166 549.688,27.866 549.856,27.618 L550.05,27.38 L550.053,27.383 C550.331,27.109 550.711,26.94 551.13,26.94 C551.32,26.94 551.502,26.979 551.671,27.042 L551.697,27.051 C551.868,27.118 552.023,27.218 552.158,27.339 L552.16,27.34 L552.162,27.342 L552.281,27.462 L562.15,37.33 L566.81,33.21 L566.81,29.75 C566.16,29.57 565.69,28.98 565.69,28.27 C565.69,27.42 566.39,26.73 567.24,26.73 C567.346,26.73 567.449,26.741 567.549,26.761 L567.645,26.791 C567.906,26.862 568.143,26.994 568.33,27.18 L571.487,30.337 L571.728,30.361 L571.872,30.405 L572.02,30.451 L572.099,30.494 L572.283,30.593 L572.517,30.788 L580.24,38.51 L580.24,30.08 C579.6,29.9 579.13,29.3 579.13,28.6 C579.13,27.75 579.82,27.05 580.68,27.05 C581.08,27.05 581.44,27.2 581.71,27.46 L581.82,27.57 L607.36,53.11 C607.61,52.64 608.12,52.33 608.69,52.33 C609.12,52.33 609.5,52.5 609.78,52.78 L636.667,79.667 L636.667,136.667" id="Fill-751" fill="#353A3E"></path>
            <path d="M602.469,62.613 L590.084,62.613 C589.844,62.613 589.65,62.419 589.65,62.18 C589.65,61.941 589.844,61.748 590.084,61.748 L602.289,61.748 L605.445,58.594 C605.611,58.425 605.887,58.425 606.057,58.594 C606.225,58.763 606.225,59.037 606.057,59.207 L602.775,62.486 C602.693,62.567 602.584,62.613 602.469,62.613" id="Fill-752" fill="#FFFFFF"></path>
            <path d="M598.504,56.457 L590.084,56.457 C589.844,56.457 589.65,56.263 589.65,56.024 C589.65,55.785 589.844,55.591 590.084,55.591 L598.324,55.591 L600.344,53.568 C600.424,53.487 600.537,53.442 600.65,53.442 L607.574,53.442 C607.814,53.442 608.008,53.635 608.008,53.875 C608.008,54.113 607.814,54.307 607.574,54.307 L600.83,54.307 L598.809,56.33 C598.729,56.412 598.617,56.457 598.504,56.457" id="Fill-753" fill="#FFFFFF"></path>
            <path d="M608.297,85.896 C608.188,85.896 608.074,85.855 607.992,85.771 L603.301,81.078 L590.627,81.078 C590.387,81.078 590.193,80.884 590.193,80.646 C590.193,80.407 590.387,80.213 590.627,80.213 L603.479,80.213 C603.594,80.213 603.703,80.258 603.783,80.339 L608.604,85.158 C608.773,85.327 608.773,85.601 608.604,85.771 C608.52,85.855 608.408,85.896 608.297,85.896" id="Fill-754" fill="#FFFFFF"></path>
            <path d="M595.879,74.921 L590.627,74.921 C590.387,74.921 590.193,74.728 590.193,74.487 C590.193,74.249 590.387,74.055 590.627,74.055 L595.879,74.055 C596.117,74.055 596.311,74.249 596.311,74.487 C596.311,74.728 596.117,74.921 595.879,74.921" id="Fill-755" fill="#FFFFFF"></path>
            <path d="M608.08,73.988 L601.852,73.988 C601.738,73.988 601.629,73.942 601.547,73.861 L596.451,68.764 L590.627,68.764 C590.387,68.764 590.193,68.571 590.193,68.332 C590.193,68.093 590.387,67.899 590.627,67.899 L596.629,67.899 C596.744,67.899 596.854,67.944 596.938,68.025 L602.033,73.123 L608.08,73.123 C608.318,73.123 608.512,73.316 608.512,73.555 C608.512,73.794 608.318,73.988 608.08,73.988" id="Fill-756" fill="#FFFFFF"></path>
            <path d="M608.688,53.196 C608.314,53.196 608.008,53.5 608.008,53.875 C608.008,54.25 608.314,54.556 608.688,54.556 C609.066,54.556 609.369,54.25 609.369,53.875 C609.369,53.5 609.066,53.196 608.688,53.196 Z M608.688,55.421 C607.836,55.421 607.141,54.728 607.141,53.875 C607.141,53.022 607.836,52.329 608.688,52.329 C609.543,52.329 610.234,53.022 610.234,53.875 C610.234,54.728 609.543,55.421 608.688,55.421 L608.688,55.421 Z" id="Fill-757" fill="#FFFFFF"></path>
            <path d="M606.537,57.432 C606.162,57.432 605.855,57.738 605.855,58.113 C605.855,58.488 606.162,58.794 606.537,58.794 C606.912,58.794 607.217,58.488 607.217,58.113 C607.217,57.738 606.912,57.432 606.537,57.432 Z M606.537,59.659 C605.684,59.659 604.99,58.965 604.99,58.113 C604.99,57.26 605.684,56.565 606.537,56.565 C607.389,56.565 608.084,57.26 608.084,58.113 C608.084,58.965 607.389,59.659 606.537,59.659 L606.537,59.659 Z" id="Fill-758" fill="#FFFFFF"></path>
            <path d="M609.191,72.876 C608.818,72.876 608.512,73.181 608.512,73.555 C608.512,73.93 608.818,74.234 609.191,74.234 C609.566,74.234 609.875,73.93 609.875,73.555 C609.875,73.181 609.566,72.876 609.191,72.876 Z M609.191,75.101 C608.34,75.101 607.646,74.407 607.646,73.555 C607.646,72.703 608.34,72.01 609.191,72.01 C610.045,72.01 610.74,72.703 610.74,73.555 C610.74,74.407 610.045,75.101 609.191,75.101 L609.191,75.101 Z" id="Fill-759" fill="#FFFFFF"></path>
            <path d="M596.99,73.807 C596.615,73.807 596.311,74.113 596.311,74.487 C596.311,74.863 596.615,75.168 596.99,75.168 C597.365,75.168 597.672,74.863 597.672,74.487 C597.672,74.113 597.365,73.807 596.99,73.807 Z M596.99,76.033 C596.137,76.033 595.445,75.34 595.445,74.487 C595.445,73.634 596.137,72.94 596.99,72.94 C597.842,72.94 598.537,73.634 598.537,74.487 C598.537,75.34 597.842,76.033 596.99,76.033 L596.99,76.033 Z" id="Fill-760" fill="#FFFFFF"></path>
            <path d="M609.084,85.569 C608.707,85.569 608.402,85.875 608.402,86.25 C608.402,86.625 608.707,86.93 609.084,86.93 C609.459,86.93 609.766,86.625 609.766,86.25 C609.766,85.875 609.459,85.569 609.084,85.569 Z M609.084,87.796 C608.23,87.796 607.537,87.103 607.537,86.25 C607.537,85.397 608.23,84.704 609.084,84.704 C609.936,84.704 610.631,85.397 610.631,86.25 C610.631,87.103 609.936,87.796 609.084,87.796 L609.084,87.796 Z" id="Fill-761" fill="#FFFFFF"></path>
            <path d="M546.582,56.457 L533.775,56.457 C533.535,56.457 533.342,56.263 533.342,56.024 C533.342,55.785 533.535,55.591 533.775,55.591 L546.582,55.591 C546.822,55.591 547.016,55.785 547.016,56.024 C547.016,56.263 546.822,56.457 546.582,56.457" id="Fill-762" fill="#FFFFFF"></path>
            <path d="M525.549,80.477 C525.439,80.477 525.328,80.434 525.244,80.349 C525.074,80.181 525.074,79.906 525.244,79.738 L530.797,74.182 C530.879,74.1 530.988,74.055 531.104,74.055 L546.582,74.055 C546.822,74.055 547.016,74.249 547.016,74.487 C547.016,74.728 546.822,74.921 546.582,74.921 L531.283,74.921 L525.857,80.349 C525.771,80.434 525.66,80.477 525.549,80.477" id="Fill-763" fill="#FFFFFF"></path>
            <path d="M546.582,81.078 L534.887,81.078 C534.77,81.078 534.66,81.032 534.58,80.952 L532.975,79.341 C532.807,79.171 532.807,78.897 532.977,78.729 C533.146,78.559 533.42,78.561 533.588,78.729 L535.064,80.213 L546.582,80.213 C546.822,80.213 547.016,80.407 547.016,80.646 C547.016,80.884 546.822,81.078 546.582,81.078" id="Fill-764" fill="#FFFFFF"></path>
            <path d="M533.33,64.757 L523.4,64.757 C523.16,64.757 522.967,64.563 522.967,64.324 C522.967,64.085 523.16,63.892 523.4,63.892 L533.15,63.892 L535.172,61.871 C535.252,61.79 535.361,61.743 535.477,61.743 L546.582,61.743 C546.822,61.743 547.016,61.938 547.016,62.177 C547.016,62.416 546.822,62.61 546.582,62.61 L535.656,62.61 L533.635,64.63 C533.555,64.711 533.445,64.757 533.33,64.757" id="Fill-765" fill="#FFFFFF"></path>
            <path d="M546.582,68.764 L527.373,68.764 C527.133,68.764 526.939,68.571 526.939,68.332 C526.939,68.093 527.133,67.899 527.373,67.899 L546.582,67.899 C546.822,67.899 547.016,68.093 547.016,68.332 C547.016,68.571 546.822,68.764 546.582,68.764" id="Fill-766" fill="#FFFFFF"></path>
            <path d="M532.662,55.343 C532.287,55.343 531.98,55.648 531.98,56.024 C531.98,56.398 532.287,56.703 532.662,56.703 C533.037,56.703 533.342,56.398 533.342,56.024 C533.342,55.648 533.037,55.343 532.662,55.343 Z M532.662,57.569 C531.811,57.569 531.115,56.876 531.115,56.024 C531.115,55.171 531.811,54.478 532.662,54.478 C533.516,54.478 534.207,55.171 534.207,56.024 C534.207,56.876 533.516,57.569 532.662,57.569 L532.662,57.569 Z" id="Fill-767" fill="#FFFFFF"></path>
            <path d="M522.287,63.644 C521.91,63.644 521.605,63.948 521.605,64.324 C521.605,64.699 521.91,65.003 522.287,65.003 C522.662,65.003 522.967,64.699 522.967,64.324 C522.967,63.948 522.662,63.644 522.287,63.644 Z M522.287,65.87 C521.434,65.87 520.74,65.176 520.74,64.324 C520.74,63.471 521.434,62.777 522.287,62.777 C523.139,62.777 523.832,63.471 523.832,64.324 C523.832,65.176 523.139,65.87 522.287,65.87 L522.287,65.87 Z" id="Fill-768" fill="#FFFFFF"></path>
            <path d="M526.26,67.65 C525.885,67.65 525.58,67.956 525.58,68.332 C525.58,68.707 525.885,69.01 526.26,69.01 C526.635,69.01 526.939,68.707 526.939,68.332 C526.939,67.956 526.635,67.65 526.26,67.65 Z M526.26,69.877 C525.406,69.877 524.713,69.184 524.713,68.332 C524.713,67.479 525.406,66.785 526.26,66.785 C527.111,66.785 527.805,67.479 527.805,68.332 C527.805,69.184 527.111,69.877 526.26,69.877 L526.26,69.877 Z" id="Fill-769" fill="#FFFFFF"></path>
            <path d="M524.793,80.121 C524.416,80.121 524.111,80.427 524.111,80.803 C524.111,81.178 524.416,81.482 524.793,81.482 C525.168,81.482 525.471,81.178 525.471,80.803 C525.471,80.427 525.168,80.121 524.793,80.121 Z M524.793,82.349 C523.939,82.349 523.246,81.655 523.246,80.803 C523.246,79.95 523.939,79.256 524.793,79.256 C525.645,79.256 526.338,79.95 526.338,80.803 C526.338,81.655 525.645,82.349 524.793,82.349 L524.793,82.349 Z" id="Fill-770" fill="#FFFFFF"></path>
            <path d="M532.496,77.57 C532.121,77.57 531.814,77.875 531.814,78.249 C531.814,78.624 532.121,78.928 532.496,78.928 C532.871,78.928 533.176,78.624 533.176,78.249 C533.176,77.875 532.871,77.57 532.496,77.57 Z M532.496,79.794 C531.643,79.794 530.949,79.101 530.949,78.249 C530.949,77.396 531.643,76.703 532.496,76.703 C533.348,76.703 534.041,77.396 534.041,78.249 C534.041,79.101 533.348,79.794 532.496,79.794 L532.496,79.794 Z" id="Fill-771" fill="#FFFFFF"></path>
            <path d="M553.111,107.433 C553.002,107.433 552.891,107.39 552.805,107.305 C552.637,107.137 552.637,106.863 552.805,106.693 L555.557,103.94 L555.557,90.084 C555.557,89.846 555.752,89.651 555.99,89.651 C556.229,89.651 556.422,89.846 556.422,90.084 L556.422,104.12 C556.422,104.235 556.377,104.344 556.297,104.426 L553.418,107.305 C553.334,107.39 553.223,107.433 553.111,107.433" id="Fill-772" fill="#FFFFFF"></path>
            <path d="M569.824,103.596 C569.715,103.596 569.604,103.553 569.518,103.469 C569.35,103.3 569.35,103.025 569.52,102.857 L574.066,98.313 L574.066,90.084 C574.066,89.846 574.262,89.651 574.498,89.651 C574.738,89.651 574.932,89.846 574.932,90.084 L574.932,98.493 C574.932,98.607 574.887,98.717 574.807,98.798 L570.131,103.469 C570.047,103.553 569.936,103.596 569.824,103.596" id="Fill-773" fill="#FFFFFF"></path>
            <path d="M560.514,97.1 C560.402,97.1 560.291,97.057 560.207,96.973 C560.037,96.803 560.037,96.529 560.207,96.36 L561.73,94.838 L561.73,90.084 C561.73,89.846 561.924,89.651 562.164,89.651 C562.402,89.651 562.596,89.846 562.596,90.084 L562.596,95.018 C562.596,95.133 562.551,95.243 562.469,95.325 L560.818,96.973 C560.734,97.057 560.623,97.1 560.514,97.1" id="Fill-774" fill="#FFFFFF"></path>
            <path d="M564.656,107.747 C564.418,107.747 564.225,107.552 564.225,107.313 L564.225,101.578 C564.225,101.454 564.277,101.336 564.371,101.254 L567.908,98.121 L567.908,90.084 C567.908,89.846 568.102,89.651 568.342,89.651 C568.58,89.651 568.775,89.846 568.775,90.084 L568.775,98.315 C568.775,98.44 568.721,98.558 568.629,98.64 L565.09,101.773 L565.09,107.313 C565.09,107.552 564.896,107.747 564.656,107.747" id="Fill-775" fill="#FFFFFF"></path>
            <path d="M584.328,106.891 C584.217,106.891 584.107,106.848 584.023,106.764 L580.367,103.11 C580.289,103.028 580.242,102.918 580.242,102.804 L580.242,90.084 C580.242,89.846 580.436,89.651 580.676,89.651 C580.914,89.651 581.107,89.846 581.107,90.084 L581.107,102.624 L584.635,106.152 C584.805,106.32 584.805,106.594 584.635,106.764 C584.551,106.848 584.439,106.891 584.328,106.891" id="Fill-776" fill="#FFFFFF"></path>
            <path d="M552.326,107.107 C551.949,107.107 551.645,107.412 551.645,107.788 C551.645,108.163 551.949,108.467 552.326,108.467 C552.699,108.467 553.004,108.163 553.004,107.788 C553.004,107.412 552.699,107.107 552.326,107.107 Z M552.326,109.333 C551.473,109.333 550.779,108.64 550.779,107.788 C550.779,106.935 551.473,106.241 552.326,106.241 C553.18,106.241 553.871,106.935 553.871,107.788 C553.871,108.64 553.18,109.333 552.326,109.333 L552.326,109.333 Z" id="Fill-777" fill="#FFFFFF"></path>
            <path d="M559.727,96.773 C559.352,96.773 559.045,97.079 559.045,97.454 C559.045,97.829 559.352,98.133 559.727,98.133 C560.102,98.133 560.406,97.829 560.406,97.454 C560.406,97.079 560.102,96.773 559.727,96.773 Z M559.727,98.999 C558.875,98.999 558.18,98.306 558.18,97.454 C558.18,96.601 558.875,95.906 559.727,95.906 C560.578,95.906 561.271,96.601 561.271,97.454 C561.271,98.306 560.578,98.999 559.727,98.999 L559.727,98.999 Z" id="Fill-778" fill="#FFFFFF"></path>
            <path d="M564.658,107.747 C564.283,107.747 563.977,108.052 563.977,108.428 C563.977,108.803 564.283,109.107 564.658,109.107 C565.033,109.107 565.338,108.803 565.338,108.428 C565.338,108.052 565.033,107.747 564.658,107.747 Z M564.658,109.973 C563.805,109.973 563.111,109.28 563.111,108.428 C563.111,107.575 563.805,106.881 564.658,106.881 C565.51,106.881 566.203,107.575 566.203,108.428 C566.203,109.28 565.51,109.973 564.658,109.973 L564.658,109.973 Z" id="Fill-779" fill="#FFFFFF"></path>
            <path d="M569.037,103.27 C568.662,103.27 568.357,103.576 568.357,103.952 C568.357,104.326 568.662,104.631 569.037,104.631 C569.412,104.631 569.717,104.326 569.717,103.952 C569.717,103.576 569.412,103.27 569.037,103.27 Z M569.037,105.496 C568.186,105.496 567.49,104.804 567.49,103.952 C567.49,103.099 568.186,102.404 569.037,102.404 C569.891,102.404 570.584,103.099 570.584,103.952 C570.584,104.804 569.891,105.496 569.037,105.496 L569.037,105.496 Z" id="Fill-780" fill="#FFFFFF"></path>
            <path d="M585.115,106.564 C584.74,106.564 584.436,106.87 584.436,107.245 C584.436,107.621 584.74,107.925 585.115,107.925 C585.492,107.925 585.795,107.621 585.795,107.245 C585.795,106.87 585.492,106.564 585.115,106.564 Z M585.115,108.791 C584.264,108.791 583.568,108.098 583.568,107.245 C583.568,106.392 584.264,105.698 585.115,105.698 C585.969,105.698 586.66,106.392 586.66,107.245 C586.66,108.098 585.969,108.791 585.115,108.791 L585.115,108.791 Z" id="Fill-781" fill="#FFFFFF"></path>
            <path d="M562.164,47.016 C561.924,47.016 561.73,46.822 561.73,46.583 L561.73,37.896 C561.73,37.771 561.783,37.654 561.877,37.571 L566.807,33.213 L566.807,29.386 C566.807,29.147 567,28.952 567.24,28.952 C567.479,28.952 567.672,29.147 567.672,29.386 L567.672,33.408 C567.672,33.533 567.619,33.65 567.525,33.732 L562.596,38.091 L562.596,46.583 C562.596,46.822 562.402,47.016 562.164,47.016" id="Fill-782" fill="#FFFFFF"></path>
            <path d="M555.99,47.016 C555.752,47.016 555.557,46.822 555.557,46.583 L555.557,33.521 L551.613,29.58 C551.445,29.411 551.445,29.136 551.613,28.967 C551.783,28.798 552.055,28.798 552.227,28.967 L556.297,33.036 C556.377,33.117 556.422,33.227 556.422,33.342 L556.422,46.583 C556.422,46.822 556.229,47.016 555.99,47.016" id="Fill-783" fill="#FFFFFF"></path>
            <path d="M580.676,47.016 C580.436,47.016 580.242,46.822 580.242,46.583 L580.242,29.713 C580.242,29.474 580.436,29.281 580.676,29.281 C580.914,29.281 581.107,29.474 581.107,29.713 L581.107,46.583 C581.107,46.822 580.914,47.016 580.676,47.016" id="Fill-784" fill="#FFFFFF"></path>
            <path d="M574.498,47.016 C574.262,47.016 574.066,46.822 574.066,46.583 L574.066,35.137 L571.902,32.97 C571.732,32.8 571.734,32.526 571.904,32.357 C572.07,32.188 572.346,32.189 572.514,32.357 L574.807,34.652 C574.887,34.733 574.932,34.844 574.932,34.958 L574.932,46.583 C574.932,46.822 574.738,47.016 574.498,47.016" id="Fill-785" fill="#FFFFFF"></path>
            <path d="M568.342,47.016 C568.102,47.016 567.908,46.822 567.908,46.583 L567.908,39.246 C567.908,39.132 567.955,39.021 568.035,38.94 L569.977,36.987 C570.148,36.816 570.42,36.816 570.59,36.984 C570.76,37.153 570.76,37.428 570.592,37.597 L568.775,39.424 L568.775,46.583 C568.775,46.822 568.58,47.016 568.342,47.016" id="Fill-786" fill="#FFFFFF"></path>
            <path d="M551.133,27.805 C550.758,27.805 550.451,28.111 550.451,28.486 C550.451,28.861 550.758,29.166 551.133,29.166 C551.508,29.166 551.813,28.861 551.813,28.486 C551.813,28.111 551.508,27.805 551.133,27.805 Z M551.133,30.032 C550.279,30.032 549.586,29.338 549.586,28.486 C549.586,27.633 550.279,26.94 551.133,26.94 C551.984,26.94 552.68,27.633 552.68,28.486 C552.68,29.338 551.984,30.032 551.133,30.032 L551.133,30.032 Z" id="Fill-787" fill="#FFFFFF"></path>
            <path d="M567.24,27.592 C566.863,27.592 566.557,27.898 566.557,28.273 C566.557,28.648 566.863,28.952 567.24,28.952 C567.613,28.952 567.918,28.648 567.918,28.273 C567.918,27.898 567.613,27.592 567.24,27.592 Z M567.24,29.818 C566.387,29.818 565.693,29.125 565.693,28.273 C565.693,27.42 566.387,26.726 567.24,26.726 C568.092,26.726 568.783,27.42 568.783,28.273 C568.783,29.125 568.092,29.818 567.24,29.818 L567.24,29.818 Z" id="Fill-788" fill="#FFFFFF"></path>
            <path d="M571.072,35.825 C570.697,35.825 570.391,36.13 570.391,36.505 C570.391,36.881 570.697,37.185 571.072,37.185 C571.447,37.185 571.752,36.881 571.752,36.505 C571.752,36.13 571.447,35.825 571.072,35.825 Z M571.072,38.052 C570.219,38.052 569.525,37.358 569.525,36.505 C569.525,35.653 570.219,34.959 571.072,34.959 C571.924,34.959 572.617,35.653 572.617,36.505 C572.617,37.358 571.924,38.052 571.072,38.052 L571.072,38.052 Z" id="Fill-789" fill="#FFFFFF"></path>
            <path d="M571.42,31.196 C571.047,31.196 570.74,31.501 570.74,31.876 C570.74,32.251 571.047,32.556 571.42,32.556 C571.797,32.556 572.102,32.251 572.102,31.876 C572.102,31.501 571.797,31.196 571.42,31.196 Z M571.42,33.421 C570.57,33.421 569.873,32.729 569.873,31.876 C569.873,31.024 570.57,30.33 571.42,30.33 C572.273,30.33 572.967,31.024 572.967,31.876 C572.967,32.729 572.273,33.421 571.42,33.421 L571.42,33.421 Z" id="Fill-790" fill="#FFFFFF"></path>
            <path d="M580.676,27.92 C580.301,27.92 579.994,28.226 579.994,28.602 C579.994,28.976 580.301,29.281 580.676,29.281 C581.051,29.281 581.355,28.976 581.355,28.602 C581.355,28.226 581.051,27.92 580.676,27.92 Z M580.676,30.146 C579.822,30.146 579.129,29.453 579.129,28.602 C579.129,27.748 579.822,27.054 580.676,27.054 C581.527,27.054 582.221,27.748 582.221,28.602 C582.221,29.453 581.527,30.146 580.676,30.146 L580.676,30.146 Z" id="Fill-791" fill="#FFFFFF"></path>
            <polygon id="Fill-792" fill="#FFFFFF" points="546.582 90.084 590.084 90.084 590.084 46.583 546.582 46.583"></polygon>
            <polygon id="Fill-793" fill="#FC9D21" points="554.461 46.583 557.518 46.583 557.518 43.527 554.461 43.527"></polygon>
            <polygon id="Fill-794" fill="#FC9D21" points="560.635 46.583 563.691 46.583 563.691 43.527 560.635 43.527"></polygon>
            <polygon id="Fill-795" fill="#FC9D21" points="566.809 46.583 569.865 46.583 569.865 43.527 566.809 43.527"></polygon>
            <polygon id="Fill-796" fill="#FC9D21" points="572.984 46.583 576.041 46.583 576.041 43.527 572.984 43.527"></polygon>
            <polygon id="Fill-797" fill="#FC9D21" points="579.148 46.583 582.203 46.583 582.203 43.527 579.148 43.527"></polygon>
            <polygon id="Fill-798" fill="#FC9D21" points="554.461 93.141 557.518 93.141 557.518 90.084 554.461 90.084"></polygon>
            <polygon id="Fill-799" fill="#FC9D21" points="560.635 93.141 563.691 93.141 563.691 90.084 560.635 90.084"></polygon>
            <polygon id="Fill-800" fill="#FC9D21" points="566.809 93.141 569.865 93.141 569.865 90.084 566.809 90.084"></polygon>
            <polygon id="Fill-801" fill="#FC9D21" points="572.984 93.141 576.041 93.141 576.041 90.084 572.984 90.084"></polygon>
            <polygon id="Fill-802" fill="#FC9D21" points="579.148 93.141 582.203 93.141 582.203 90.084 579.148 90.084"></polygon>
            <polygon id="Fill-803" fill="#FC9D21" points="543.525 57.553 546.582 57.553 546.582 54.497 543.525 54.497"></polygon>
            <polygon id="Fill-804" fill="#FC9D21" points="543.525 63.726 546.582 63.726 546.582 60.67 543.525 60.67"></polygon>
            <polygon id="Fill-805" fill="#FC9D21" points="543.525 69.9 546.582 69.9 546.582 66.845 543.525 66.845"></polygon>
            <polygon id="Fill-806" fill="#FC9D21" points="543.525 76.075 546.582 76.075 546.582 73.018 543.525 73.018"></polygon>
            <polygon id="Fill-807" fill="#FC9D21" points="543.525 82.238 546.582 82.238 546.582 79.182 543.525 79.182"></polygon>
            <polygon id="Fill-808" fill="#FC9D21" points="590.084 57.553 593.141 57.553 593.141 54.497 590.084 54.497"></polygon>
            <polygon id="Fill-809" fill="#FC9D21" points="590.084 63.726 593.141 63.726 593.141 60.67 590.084 60.67"></polygon>
            <polygon id="Fill-810" fill="#FC9D21" points="590.084 69.9 593.141 69.9 593.141 66.845 590.084 66.845"></polygon>
            <polygon id="Fill-811" fill="#FC9D21" points="590.084 76.075 593.141 76.075 593.141 73.018 590.084 73.018"></polygon>
            <polygon id="Fill-812" fill="#FC9D21" points="590.084 82.238 593.141 82.238 593.141 79.182 590.084 79.182"></polygon>
            <polygon id="Fill-813" fill="#0099FF" points="554.326 82.34 582.338 82.34 582.338 54.327 554.326 54.327"></polygon>
            <path d="M557.449,58.215 C557.029,58.215 556.688,57.872 556.688,57.451 C556.688,57.03 557.029,56.687 557.449,56.687 C557.871,56.687 558.215,57.03 558.215,57.451 C558.215,57.872 557.871,58.215 557.449,58.215" id="Fill-814" fill="#32373C"></path>
            <path d="M561.078,58.215 C560.656,58.215 560.314,57.872 560.314,57.451 C560.314,57.03 560.656,56.687 561.078,56.687 C561.5,56.687 561.842,57.03 561.842,57.451 C561.842,57.872 561.5,58.215 561.078,58.215" id="Fill-815" fill="#32373C"></path>
            <path d="M564.705,58.215 C564.283,58.215 563.941,57.872 563.941,57.451 C563.941,57.03 564.283,56.687 564.705,56.687 C565.127,56.687 565.469,57.03 565.469,57.451 C565.469,57.872 565.127,58.215 564.705,58.215" id="Fill-816" fill="#32373C"></path>
            <path d="M568.334,58.215 C567.912,58.215 567.568,57.872 567.568,57.451 C567.568,57.03 567.912,56.687 568.334,56.687 C568.754,56.687 569.098,57.03 569.098,57.451 C569.098,57.872 568.754,58.215 568.334,58.215" id="Fill-817" fill="#32373C"></path>
            <path d="M571.961,58.215 C571.539,58.215 571.195,57.872 571.195,57.451 C571.195,57.03 571.539,56.687 571.961,56.687 C572.383,56.687 572.725,57.03 572.725,57.451 C572.725,57.872 572.383,58.215 571.961,58.215" id="Fill-818" fill="#32373C"></path>
            <path d="M575.586,58.215 C575.166,58.215 574.824,57.872 574.824,57.451 C574.824,57.03 575.166,56.687 575.586,56.687 C576.008,56.687 576.352,57.03 576.352,57.451 C576.352,57.872 576.008,58.215 575.586,58.215" id="Fill-819" fill="#32373C"></path>
            <path d="M579.217,58.215 C578.795,58.215 578.451,57.872 578.451,57.451 C578.451,57.03 578.795,56.687 579.217,56.687 C579.637,56.687 579.98,57.03 579.98,57.451 C579.98,57.872 579.637,58.215 579.217,58.215" id="Fill-820" fill="#32373C"></path>
            <path d="M557.449,61.843 C557.029,61.843 556.688,61.5 556.688,61.079 C556.688,60.658 557.029,60.315 557.449,60.315 C557.871,60.315 558.215,60.658 558.215,61.079 C558.215,61.5 557.871,61.843 557.449,61.843" id="Fill-821" fill="#32373C"></path>
            <path d="M561.078,61.843 C560.656,61.843 560.314,61.5 560.314,61.079 C560.314,60.658 560.656,60.315 561.078,60.315 C561.5,60.315 561.842,60.658 561.842,61.079 C561.842,61.5 561.5,61.843 561.078,61.843" id="Fill-822" fill="#32373C"></path>
            <path d="M564.705,61.843 C564.283,61.843 563.941,61.5 563.941,61.079 C563.941,60.658 564.283,60.315 564.705,60.315 C565.127,60.315 565.469,60.658 565.469,61.079 C565.469,61.5 565.127,61.843 564.705,61.843" id="Fill-823" fill="#32373C"></path>
            <path d="M568.334,61.843 C567.912,61.843 567.568,61.5 567.568,61.079 C567.568,60.658 567.912,60.315 568.334,60.315 C568.754,60.315 569.098,60.658 569.098,61.079 C569.098,61.5 568.754,61.843 568.334,61.843" id="Fill-824" fill="#32373C"></path>
            <path d="M571.961,61.843 C571.539,61.843 571.195,61.5 571.195,61.079 C571.195,60.658 571.539,60.315 571.961,60.315 C572.383,60.315 572.725,60.658 572.725,61.079 C572.725,61.5 572.383,61.843 571.961,61.843" id="Fill-825" fill="#32373C"></path>
            <path d="M575.586,61.843 C575.166,61.843 574.824,61.5 574.824,61.079 C574.824,60.658 575.166,60.315 575.586,60.315 C576.008,60.315 576.352,60.658 576.352,61.079 C576.352,61.5 576.008,61.843 575.586,61.843" id="Fill-826" fill="#32373C"></path>
            <path d="M579.217,61.843 C578.795,61.843 578.451,61.5 578.451,61.079 C578.451,60.658 578.795,60.315 579.217,60.315 C579.637,60.315 579.98,60.658 579.98,61.079 C579.98,61.5 579.637,61.843 579.217,61.843" id="Fill-827" fill="#32373C"></path>
            <path d="M557.449,65.469 C557.029,65.469 556.688,65.127 556.688,64.706 C556.688,64.285 557.029,63.942 557.449,63.942 C557.871,63.942 558.215,64.285 558.215,64.706 C558.215,65.127 557.871,65.469 557.449,65.469" id="Fill-828" fill="#32373C"></path>
            <path d="M561.078,65.469 C560.656,65.469 560.314,65.127 560.314,64.706 C560.314,64.285 560.656,63.942 561.078,63.942 C561.5,63.942 561.842,64.285 561.842,64.706 C561.842,65.127 561.5,65.469 561.078,65.469" id="Fill-829" fill="#32373C"></path>
            <path d="M564.705,65.469 C564.283,65.469 563.941,65.127 563.941,64.706 C563.941,64.285 564.283,63.942 564.705,63.942 C565.127,63.942 565.469,64.285 565.469,64.706 C565.469,65.127 565.127,65.469 564.705,65.469" id="Fill-830" fill="#32373C"></path>
            <path d="M568.334,65.469 C567.912,65.469 567.568,65.127 567.568,64.706 C567.568,64.285 567.912,63.942 568.334,63.942 C568.754,63.942 569.098,64.285 569.098,64.706 C569.098,65.127 568.754,65.469 568.334,65.469" id="Fill-831" fill="#32373C"></path>
            <path d="M571.961,65.469 C571.539,65.469 571.195,65.127 571.195,64.706 C571.195,64.285 571.539,63.942 571.961,63.942 C572.383,63.942 572.725,64.285 572.725,64.706 C572.725,65.127 572.383,65.469 571.961,65.469" id="Fill-832" fill="#32373C"></path>
            <path d="M575.586,65.469 C575.166,65.469 574.824,65.127 574.824,64.706 C574.824,64.285 575.166,63.942 575.586,63.942 C576.008,63.942 576.352,64.285 576.352,64.706 C576.352,65.127 576.008,65.469 575.586,65.469" id="Fill-833" fill="#32373C"></path>
            <path d="M579.217,65.469 C578.795,65.469 578.451,65.127 578.451,64.706 C578.451,64.285 578.795,63.942 579.217,63.942 C579.637,63.942 579.98,64.285 579.98,64.706 C579.98,65.127 579.637,65.469 579.217,65.469" id="Fill-834" fill="#32373C"></path>
            <path d="M557.449,69.098 C557.029,69.098 556.688,68.755 556.688,68.333 C556.688,67.912 557.029,67.569 557.449,67.569 C557.871,67.569 558.215,67.912 558.215,68.333 C558.215,68.755 557.871,69.098 557.449,69.098" id="Fill-835" fill="#32373C"></path>
            <path d="M561.078,69.098 C560.656,69.098 560.314,68.755 560.314,68.333 C560.314,67.912 560.656,67.569 561.078,67.569 C561.5,67.569 561.842,67.912 561.842,68.333 C561.842,68.755 561.5,69.098 561.078,69.098" id="Fill-836" fill="#32373C"></path>
            <path d="M564.705,69.098 C564.283,69.098 563.941,68.755 563.941,68.333 C563.941,67.912 564.283,67.569 564.705,67.569 C565.127,67.569 565.469,67.912 565.469,68.333 C565.469,68.755 565.127,69.098 564.705,69.098" id="Fill-837" fill="#32373C"></path>
            <path d="M568.334,69.098 C567.912,69.098 567.568,68.755 567.568,68.333 C567.568,67.912 567.912,67.569 568.334,67.569 C568.754,67.569 569.098,67.912 569.098,68.333 C569.098,68.755 568.754,69.098 568.334,69.098" id="Fill-838" fill="#32373C"></path>
            <path d="M571.961,69.098 C571.539,69.098 571.195,68.755 571.195,68.333 C571.195,67.912 571.539,67.569 571.961,67.569 C572.383,67.569 572.725,67.912 572.725,68.333 C572.725,68.755 572.383,69.098 571.961,69.098" id="Fill-839" fill="#32373C"></path>
            <path d="M575.586,69.098 C575.166,69.098 574.824,68.755 574.824,68.333 C574.824,67.912 575.166,67.569 575.586,67.569 C576.008,67.569 576.352,67.912 576.352,68.333 C576.352,68.755 576.008,69.098 575.586,69.098" id="Fill-840" fill="#32373C"></path>
            <path d="M579.217,69.098 C578.795,69.098 578.451,68.755 578.451,68.333 C578.451,67.912 578.795,67.569 579.217,67.569 C579.637,67.569 579.98,67.912 579.98,68.333 C579.98,68.755 579.637,69.098 579.217,69.098" id="Fill-841" fill="#32373C"></path>
            <path d="M557.449,72.725 C557.029,72.725 556.688,72.382 556.688,71.961 C556.688,71.54 557.029,71.197 557.449,71.197 C557.871,71.197 558.215,71.54 558.215,71.961 C558.215,72.382 557.871,72.725 557.449,72.725" id="Fill-842" fill="#32373C"></path>
            <path d="M561.078,72.725 C560.656,72.725 560.314,72.382 560.314,71.961 C560.314,71.54 560.656,71.197 561.078,71.197 C561.5,71.197 561.842,71.54 561.842,71.961 C561.842,72.382 561.5,72.725 561.078,72.725" id="Fill-843" fill="#32373C"></path>
            <path d="M564.705,72.725 C564.283,72.725 563.941,72.382 563.941,71.961 C563.941,71.54 564.283,71.197 564.705,71.197 C565.127,71.197 565.469,71.54 565.469,71.961 C565.469,72.382 565.127,72.725 564.705,72.725" id="Fill-844" fill="#32373C"></path>
            <path d="M568.334,72.725 C567.912,72.725 567.568,72.382 567.568,71.961 C567.568,71.54 567.912,71.197 568.334,71.197 C568.754,71.197 569.098,71.54 569.098,71.961 C569.098,72.382 568.754,72.725 568.334,72.725" id="Fill-845" fill="#32373C"></path>
            <path d="M571.961,72.725 C571.539,72.725 571.195,72.382 571.195,71.961 C571.195,71.54 571.539,71.197 571.961,71.197 C572.383,71.197 572.725,71.54 572.725,71.961 C572.725,72.382 572.383,72.725 571.961,72.725" id="Fill-846" fill="#32373C"></path>
            <path d="M575.586,72.725 C575.166,72.725 574.824,72.382 574.824,71.961 C574.824,71.54 575.166,71.197 575.586,71.197 C576.008,71.197 576.352,71.54 576.352,71.961 C576.352,72.382 576.008,72.725 575.586,72.725" id="Fill-847" fill="#32373C"></path>
            <path d="M579.217,72.725 C578.795,72.725 578.451,72.382 578.451,71.961 C578.451,71.54 578.795,71.197 579.217,71.197 C579.637,71.197 579.98,71.54 579.98,71.961 C579.98,72.382 579.637,72.725 579.217,72.725" id="Fill-848" fill="#32373C"></path>
            <path d="M557.449,76.353 C557.029,76.353 556.688,76.01 556.688,75.589 C556.688,75.167 557.029,74.825 557.449,74.825 C557.871,74.825 558.215,75.167 558.215,75.589 C558.215,76.01 557.871,76.353 557.449,76.353" id="Fill-849" fill="#32373C"></path>
            <path d="M561.078,76.353 C560.656,76.353 560.314,76.01 560.314,75.589 C560.314,75.167 560.656,74.825 561.078,74.825 C561.5,74.825 561.842,75.167 561.842,75.589 C561.842,76.01 561.5,76.353 561.078,76.353" id="Fill-850" fill="#32373C"></path>
            <path d="M564.705,76.353 C564.283,76.353 563.941,76.01 563.941,75.589 C563.941,75.167 564.283,74.825 564.705,74.825 C565.127,74.825 565.469,75.167 565.469,75.589 C565.469,76.01 565.127,76.353 564.705,76.353" id="Fill-851" fill="#32373C"></path>
            <path d="M568.334,76.353 C567.912,76.353 567.568,76.01 567.568,75.589 C567.568,75.167 567.912,74.825 568.334,74.825 C568.754,74.825 569.098,75.167 569.098,75.589 C569.098,76.01 568.754,76.353 568.334,76.353" id="Fill-852" fill="#32373C"></path>
            <path d="M571.961,76.353 C571.539,76.353 571.195,76.01 571.195,75.589 C571.195,75.167 571.539,74.825 571.961,74.825 C572.383,74.825 572.725,75.167 572.725,75.589 C572.725,76.01 572.383,76.353 571.961,76.353" id="Fill-853" fill="#32373C"></path>
            <path d="M575.586,76.353 C575.166,76.353 574.824,76.01 574.824,75.589 C574.824,75.167 575.166,74.825 575.586,74.825 C576.008,74.825 576.352,75.167 576.352,75.589 C576.352,76.01 576.008,76.353 575.586,76.353" id="Fill-854" fill="#32373C"></path>
            <path d="M579.217,76.353 C578.795,76.353 578.451,76.01 578.451,75.589 C578.451,75.167 578.795,74.825 579.217,74.825 C579.637,74.825 579.98,75.167 579.98,75.589 C579.98,76.01 579.637,76.353 579.217,76.353" id="Fill-855" fill="#32373C"></path>
            <path d="M557.449,79.979 C557.029,79.979 556.688,79.637 556.688,79.215 C556.688,78.794 557.029,78.452 557.449,78.452 C557.871,78.452 558.215,78.794 558.215,79.215 C558.215,79.637 557.871,79.979 557.449,79.979" id="Fill-856" fill="#32373C"></path>
            <path d="M561.078,79.979 C560.656,79.979 560.314,79.637 560.314,79.215 C560.314,78.794 560.656,78.452 561.078,78.452 C561.5,78.452 561.842,78.794 561.842,79.215 C561.842,79.637 561.5,79.979 561.078,79.979" id="Fill-857" fill="#32373C"></path>
            <path d="M564.705,79.979 C564.283,79.979 563.941,79.637 563.941,79.215 C563.941,78.794 564.283,78.452 564.705,78.452 C565.127,78.452 565.469,78.794 565.469,79.215 C565.469,79.637 565.127,79.979 564.705,79.979" id="Fill-858" fill="#32373C"></path>
            <path d="M568.334,79.979 C567.912,79.979 567.568,79.637 567.568,79.215 C567.568,78.794 567.912,78.452 568.334,78.452 C568.754,78.452 569.098,78.794 569.098,79.215 C569.098,79.637 568.754,79.979 568.334,79.979" id="Fill-859" fill="#32373C"></path>
            <path d="M571.961,79.979 C571.539,79.979 571.195,79.637 571.195,79.215 C571.195,78.794 571.539,78.452 571.961,78.452 C572.383,78.452 572.725,78.794 572.725,79.215 C572.725,79.637 572.383,79.979 571.961,79.979" id="Fill-860" fill="#32373C"></path>
            <path d="M575.586,79.979 C575.166,79.979 574.824,79.637 574.824,79.215 C574.824,78.794 575.166,78.452 575.586,78.452 C576.008,78.452 576.352,78.794 576.352,79.215 C576.352,79.637 576.008,79.979 575.586,79.979" id="Fill-861" fill="#32373C"></path>
            <path d="M579.217,79.979 C578.795,79.979 578.451,79.637 578.451,79.215 C578.451,78.794 578.795,78.452 579.217,78.452 C579.637,78.452 579.98,78.794 579.98,79.215 C579.98,79.637 579.637,79.979 579.217,79.979" id="Fill-862" fill="#32373C"></path>
        </g>
    </g>
</svg>
